<svg width="168" height="21" viewBox="0 0 168 21" fill="none" xmlns="http://www.w3.org/2000/svg">
<path fill-rule="evenodd" clip-rule="evenodd" d="M12 2.5H8V6.5H4H0V10.5V14.5V18.5H4H8V14.5H12H16V10.5V6.5V2.5H12ZM4 14.5H8V10.5H12V6.5H8V10.5H4V14.5Z" fill="#C778DD"/>
<path d="M32.432 4.912V12.008C32.432 12.6533 32.3333 13.2373 32.136 13.76C31.9387 14.2827 31.648 14.728 31.264 15.096C30.8853 15.464 30.4187 15.7467 29.864 15.944C29.3147 16.1413 28.6853 16.24 27.976 16.24C27.2613 16.24 26.6427 16.1493 26.12 15.968C25.6027 15.7813 25.104 15.5253 24.624 15.2L25.624 13.584C26.0027 13.8453 26.3573 14.0293 26.688 14.136C27.0187 14.2373 27.3947 14.288 27.816 14.288C28.3867 14.288 28.8613 14.1067 29.24 13.744C29.624 13.376 29.816 12.808 29.816 12.04V6.832H26.408V4.912H32.432ZM41.8658 13.552C41.8658 13.872 41.9084 14.104 41.9938 14.248C42.0844 14.392 42.2284 14.5013 42.4258 14.576L41.9058 16.24C41.4044 16.192 40.9804 16.0827 40.6338 15.912C40.2924 15.736 40.0231 15.472 39.8258 15.12C39.5004 15.5093 39.0844 15.8 38.5778 15.992C38.0711 16.1787 37.5538 16.272 37.0258 16.272C36.1511 16.272 35.4524 16.024 34.9298 15.528C34.4124 15.0267 34.1538 14.384 34.1538 13.6C34.1538 12.6773 34.5138 11.9653 35.2338 11.464C35.9591 10.9627 36.9778 10.712 38.2898 10.712H39.4338V10.392C39.4338 9.94933 39.2898 9.62133 39.0018 9.408C38.7191 9.19467 38.3031 9.088 37.7538 9.088C37.4818 9.088 37.1324 9.128 36.7058 9.208C36.2791 9.28267 35.8524 9.392 35.4258 9.536L34.8418 7.856C35.3911 7.648 35.9618 7.49067 36.5538 7.384C37.1511 7.27733 37.6844 7.224 38.1538 7.224C39.4178 7.224 40.3511 7.48267 40.9538 8C41.5618 8.512 41.8658 9.25333 41.8658 10.224V13.552ZM37.8978 14.464C38.1698 14.464 38.4551 14.384 38.7538 14.224C39.0524 14.0587 39.2791 13.8267 39.4338 13.528V12.152H38.8098C38.1058 12.152 37.5884 12.2613 37.2578 12.48C36.9271 12.6933 36.7618 13.008 36.7618 13.424C36.7618 13.7493 36.8604 14.0053 37.0578 14.192C37.2604 14.3733 37.5404 14.464 37.8978 14.464ZM52.3235 7.504L49.4915 16H46.5155L43.6515 7.504H46.3795L48.0355 14.064L49.7635 7.504H52.3235ZM59.0933 7.504V14.272H61.2533V16H54.1573V14.272H56.5653V9.232H54.2373V7.504H59.0933ZM57.5653 3.056C58.0026 3.056 58.3599 3.192 58.6373 3.464C58.9146 3.736 59.0533 4.07467 59.0533 4.48C59.0533 4.88533 58.9146 5.22667 58.6373 5.504C58.3599 5.776 58.0026 5.912 57.5653 5.912C57.1226 5.912 56.7599 5.776 56.4773 5.504C56.1999 5.22667 56.0613 4.88533 56.0613 4.48C56.0613 4.07467 56.1999 3.736 56.4773 3.464C56.7599 3.192 57.1226 3.056 57.5653 3.056ZM65.687 12.488C65.7457 12.952 65.8657 13.328 66.047 13.616C66.2337 13.8987 66.471 14.1067 66.759 14.24C67.047 14.368 67.3697 14.432 67.727 14.432C68.1163 14.432 68.4923 14.368 68.855 14.24C69.2177 14.112 69.567 13.9413 69.903 13.728L70.919 15.104C70.519 15.4453 70.0337 15.7253 69.463 15.944C68.8977 16.1627 68.2523 16.272 67.527 16.272C66.5563 16.272 65.743 16.08 65.087 15.696C64.431 15.3067 63.9377 14.7733 63.607 14.096C63.2763 13.4187 63.111 12.64 63.111 11.76C63.111 10.9227 63.271 10.1627 63.591 9.48C63.911 8.792 64.3777 8.24533 64.991 7.84C65.6097 7.42933 66.3643 7.224 67.255 7.224C68.0657 7.224 68.767 7.39733 69.359 7.744C69.9563 8.09067 70.4177 8.58933 70.743 9.24C71.0737 9.89067 71.239 10.672 71.239 11.584C71.239 11.728 71.2337 11.8827 71.223 12.048C71.2177 12.2133 71.207 12.36 71.191 12.488H65.687ZM67.255 8.92C66.8017 8.92 66.4363 9.08267 66.159 9.408C65.8817 9.73333 65.7137 10.2533 65.655 10.968H68.775C68.7697 10.3493 68.6497 9.85333 68.415 9.48C68.1803 9.10667 67.7937 8.92 67.255 8.92ZM73.1688 16V14.304H74.2888V9.184H73.1688V7.504H76.2168L76.6808 9.416C76.9848 8.68533 77.3714 8.14133 77.8408 7.784C78.3154 7.42667 78.8941 7.248 79.5768 7.248C79.8648 7.248 80.1208 7.272 80.3448 7.32C80.5688 7.36267 80.7794 7.424 80.9768 7.504L80.2088 9.592C80.0541 9.54933 79.8994 9.51733 79.7448 9.496C79.5901 9.47467 79.4194 9.464 79.2328 9.464C78.6781 9.464 78.1901 9.69067 77.7688 10.144C77.3528 10.5973 77.0354 11.1733 76.8168 11.872V14.304H78.4968V16H73.1688ZM78.9208 11.056V8.576L79.2968 7.504H80.9768L80.5048 11.056H78.9208ZM96.3643 16.272C95.3136 16.272 94.4283 16.0507 93.7083 15.608C92.9883 15.16 92.4416 14.504 92.0683 13.64C91.7003 12.7707 91.5163 11.7013 91.5163 10.432C91.5163 9.488 91.6469 8.656 91.9083 7.936C92.1749 7.21067 92.5429 6.60533 93.0123 6.12C93.4816 5.62933 94.0283 5.25867 94.6523 5.008C95.2763 4.75733 95.9483 4.632 96.6683 4.632C97.4789 4.632 98.1616 4.75733 98.7163 5.008C99.2709 5.25867 99.7643 5.58933 100.196 6L98.8203 7.424C98.4843 7.12533 98.1616 6.904 97.8523 6.76C97.5429 6.616 97.1909 6.544 96.7963 6.544C96.4229 6.544 96.0789 6.61867 95.7643 6.768C95.4549 6.912 95.1829 7.14133 94.9483 7.456C94.7189 7.76533 94.5403 8.168 94.4123 8.664C94.2843 9.15467 94.2203 9.74933 94.2203 10.448C94.2203 11.4133 94.2976 12.1813 94.4523 12.752C94.6123 13.3227 94.8523 13.7333 95.1723 13.984C95.4923 14.2293 95.8976 14.352 96.3883 14.352C96.6496 14.352 96.8949 14.3227 97.1243 14.264C97.3536 14.2 97.5669 14.1173 97.7643 14.016V11.48H96.3723L96.1163 9.64H100.244V15.152C99.6896 15.4933 99.0923 15.7653 98.4523 15.968C97.8176 16.1707 97.1216 16.272 96.3643 16.272ZM105.55 7.224C106.425 7.224 107.169 7.41067 107.782 7.784C108.395 8.15733 108.865 8.68267 109.19 9.36C109.515 10.032 109.678 10.8213 109.678 11.728C109.678 12.672 109.513 13.4853 109.182 14.168C108.857 14.8453 108.387 15.3653 107.774 15.728C107.161 16.0907 106.419 16.272 105.55 16.272C104.686 16.272 103.945 16.0933 103.326 15.736C102.713 15.3787 102.241 14.8613 101.91 14.184C101.585 13.5067 101.422 12.6933 101.422 11.744C101.422 10.8427 101.585 10.0533 101.91 9.376C102.241 8.69867 102.713 8.17067 103.326 7.792C103.945 7.41333 104.686 7.224 105.55 7.224ZM105.55 9.088C105.033 9.088 104.649 9.30133 104.398 9.728C104.153 10.1493 104.03 10.8213 104.03 11.744C104.03 12.6827 104.153 13.3627 104.398 13.784C104.649 14.2053 105.033 14.416 105.55 14.416C106.067 14.416 106.449 14.2053 106.694 13.784C106.945 13.3627 107.07 12.6773 107.07 11.728C107.07 10.8107 106.945 10.1413 106.694 9.72C106.449 9.29867 106.067 9.088 105.55 9.088ZM111.464 16V7.504H113.672L113.848 8.488C114.226 8.06133 114.626 7.744 115.048 7.536C115.469 7.328 115.949 7.224 116.488 7.224C117.213 7.224 117.784 7.44533 118.2 7.888C118.616 8.33067 118.824 8.95467 118.824 9.76V16H116.296V10.488C116.296 10.1413 116.272 9.86667 116.224 9.664C116.176 9.456 116.09 9.30933 115.968 9.224C115.85 9.13333 115.688 9.088 115.48 9.088C115.304 9.088 115.13 9.128 114.96 9.208C114.794 9.28267 114.632 9.392 114.472 9.536C114.312 9.68 114.152 9.85333 113.992 10.056V16H111.464ZM124.074 14.088H128.33L128.09 16H121.09V14.216L125.306 9.408H121.442V7.504H128.25V9.28L124.074 14.088ZM137.803 13.552C137.803 13.872 137.846 14.104 137.931 14.248C138.022 14.392 138.166 14.5013 138.363 14.576L137.843 16.24C137.342 16.192 136.918 16.0827 136.571 15.912C136.23 15.736 135.961 15.472 135.763 15.12C135.438 15.5093 135.022 15.8 134.515 15.992C134.009 16.1787 133.491 16.272 132.963 16.272C132.089 16.272 131.39 16.024 130.867 15.528C130.35 15.0267 130.091 14.384 130.091 13.6C130.091 12.6773 130.451 11.9653 131.171 11.464C131.897 10.9627 132.915 10.712 134.227 10.712H135.371V10.392C135.371 9.94933 135.227 9.62133 134.939 9.408C134.657 9.19467 134.241 9.088 133.691 9.088C133.419 9.088 133.07 9.128 132.643 9.208C132.217 9.28267 131.79 9.392 131.363 9.536L130.779 7.856C131.329 7.648 131.899 7.49067 132.491 7.384C133.089 7.27733 133.622 7.224 134.091 7.224C135.355 7.224 136.289 7.48267 136.891 8C137.499 8.512 137.803 9.25333 137.803 10.224V13.552ZM133.835 14.464C134.107 14.464 134.393 14.384 134.691 14.224C134.99 14.0587 135.217 13.8267 135.371 13.528V12.152H134.747C134.043 12.152 133.526 12.2613 133.195 12.48C132.865 12.6933 132.699 13.008 132.699 13.424C132.699 13.7493 132.798 14.0053 132.995 14.192C133.198 14.3733 133.478 14.464 133.835 14.464ZM135.435 2.64L136.419 4.544L132.643 6.04L131.947 4.76L135.435 2.64ZM144.677 4.128V13.328C144.677 13.6693 144.773 13.9147 144.965 14.064C145.162 14.208 145.432 14.28 145.773 14.28C145.992 14.28 146.202 14.256 146.405 14.208C146.608 14.1547 146.797 14.0933 146.973 14.024L147.581 15.712C147.293 15.8613 146.946 15.992 146.541 16.104C146.136 16.216 145.664 16.272 145.125 16.272C144.101 16.272 143.349 15.9787 142.869 15.392C142.389 14.8 142.149 14.008 142.149 13.016V5.856H139.645V4.128H144.677ZM152.031 12.488C152.089 12.952 152.209 13.328 152.391 13.616C152.577 13.8987 152.815 14.1067 153.103 14.24C153.391 14.368 153.713 14.432 154.071 14.432C154.46 14.432 154.836 14.368 155.199 14.24C155.561 14.112 155.911 13.9413 156.247 13.728L157.263 15.104C156.863 15.4453 156.377 15.7253 155.807 15.944C155.241 16.1627 154.596 16.272 153.871 16.272C152.9 16.272 152.087 16.08 151.431 15.696C150.775 15.3067 150.281 14.7733 149.951 14.096C149.62 13.4187 149.455 12.64 149.455 11.76C149.455 10.9227 149.615 10.1627 149.935 9.48C150.255 8.792 150.721 8.24533 151.335 7.84C151.953 7.42933 152.708 7.224 153.599 7.224C154.409 7.224 155.111 7.39733 155.703 7.744C156.3 8.09067 156.761 8.58933 157.087 9.24C157.417 9.89067 157.583 10.672 157.583 11.584C157.583 11.728 157.577 11.8827 157.567 12.048C157.561 12.2133 157.551 12.36 157.535 12.488H152.031ZM153.599 8.92C153.145 8.92 152.78 9.08267 152.503 9.408C152.225 9.73333 152.057 10.2533 151.999 10.968H155.119C155.113 10.3493 154.993 9.85333 154.759 9.48C154.524 9.10667 154.137 8.92 153.599 8.92ZM162.449 14.088H166.705L166.465 16H159.465V14.216L163.681 9.408H159.817V7.504H166.625V9.28L162.449 14.088Z" fill="white"/>
</svg>
